<svg xmlns="http://www.w3.org/2000/svg" width="71.539" height="89.566" viewBox="0 0 71.539 89.566"><defs><style>.a{fill:#f2ba49;}.b{fill:#ffd34d;}</style></defs><g transform="translate(-560.575 -262.279)"><g transform="translate(560.575 280.115)"><path class="a" d="M585.778,336.806c-21.467-10.068-26.879-20.7-24.786-27.3,1.66-5.233,7.713-7.732,15.419-6.361l-1,5.637c-4.631-.823-8.232.163-8.959,2.455-1.13,3.561,3.732,11.929,21.76,20.384Z" transform="translate(-560.575 -302.775)"/></g><g transform="translate(603.574 280.115)"><path class="a" d="M660.635,336.807l-2.432-5.184c18.028-8.455,22.89-16.823,21.76-20.384-.727-2.292-4.328-3.278-8.959-2.455l-1-5.637c7.707-1.371,13.758,1.128,15.419,6.361C687.513,316.1,682.1,326.739,660.635,336.807Z" transform="translate(-658.203 -302.775)"/></g><rect class="a" width="5.278" height="29.593" transform="translate(593.253 306.86)"/><path class="b" d="M576.607,288.645l13.936,37.784a15.262,15.262,0,0,0,28.639,0l13.936-37.784Z" transform="translate(-8.971 -14.753)"/><path class="b" d="M627,430.688h-6.218a10.171,10.171,0,0,0-10.17,10.17h26.558A10.17,10.17,0,0,0,627,430.688Z" transform="translate(-27.998 -94.235)"/><rect class="a" width="5.278" height="29.593" transform="translate(610.688 346.567) rotate(90)"/><path class="a" d="M623.673,302.6l3.175,9.772h10.275l-8.312,6.039,3.175,9.772-8.312-6.039-8.312,6.039,3.175-9.772-8.312-6.039H620.5Z" transform="translate(-27.782 -22.563)"/><path class="a" d="M593.233,390.252v-2.879h-1.6v2.879h-2.879v1.6h2.879v2.879h1.6v-2.879h2.879v-1.6Z" transform="translate(-15.77 -69.997)"/><path class="b" d="M580.225,375.72a1.89,1.89,0,1,1-1.89-1.89A1.89,1.89,0,0,1,580.225,375.72Z" transform="translate(-8.88 -62.419)"/><path class="a" d="M618.52,272.7v-2.286h-1.267V272.7h-2.286v1.267h2.286v2.286h1.267v-2.286h2.286V272.7Z" transform="translate(-30.436 -4.55)"/><path class="b" d="M680.2,391.735a1.513,1.513,0,1,1-1.513-1.513A1.513,1.513,0,0,1,680.2,391.735Z" transform="translate(-65.245 -71.592)"/><path class="b" d="M718.7,287.282a1.692,1.692,0,1,1-1.692-1.692A1.691,1.691,0,0,1,718.7,287.282Z" transform="translate(-86.589 -13.044)"/><path class="b" d="M668.449,264.671a2.392,2.392,0,1,1-2.392-2.392A2.392,2.392,0,0,1,668.449,264.671Z" transform="translate(-57.685)"/><path class="a" d="M682.478,271.87a1.459,1.459,0,1,1-1.46-1.459A1.46,1.46,0,0,1,682.478,271.87Z" transform="translate(-66.579 -4.55)"/></g></svg>