<svg xmlns="http://www.w3.org/2000/svg" width="64.333" height="58.292" viewBox="0 0 64.333 58.292"><defs><style>.a{fill:#fb4a59;}.b{fill:#f82f40;}</style></defs><g transform="translate(-4.326 -33.539)"><g transform="translate(4.326 33.539)"><g transform="translate(0 0)"><path class="a" d="M84.581,65.7a18.853,18.853,0,0,0-25.718-27.54,1.441,1.441,0,0,1-1.887,0A18.853,18.853,0,0,0,31.259,65.7L57,91.452a1.294,1.294,0,0,0,1.831,0Z" transform="translate(-25.754 -33.539)"/><g transform="translate(28.032 0.205)"><path class="b" d="M257.2,66.967,231.459,92.714a1.3,1.3,0,0,1-1.832,0l-3.218-3.22L251,64.9a18.867,18.867,0,0,0-4.369-29.9A18.852,18.852,0,0,1,257.2,66.967Z" transform="translate(-226.409 -35.006)"/></g></g></g></g></svg>