<?xml version="1.0" encoding="utf-8"?>
<!-- Generator: Adobe Illustrator 24.2.0, SVG Export Plug-In . SVG Version: 6.00 Build 0)  -->
<svg version="1.1" id="Capa_1" xmlns="http://www.w3.org/2000/svg" xmlns:xlink="http://www.w3.org/1999/xlink" x="0px" y="0px"
	 viewBox="0 0 512 512" style="enable-background:new 0 0 512 512;" xml:space="preserve">
<style type="text/css">
	.st0{fill:#FF4755;}
	.st1{fill:#FC2B3A;}
	.st2{fill:#FFE27A;}
	.st3{fill:#F9CF58;}
	.st4{fill:#FFBA57;}
	.st5{fill:#FFAC3E;}
</style>
<g>
	<g>
		<path class="st0" d="M155,355.1l-20.3,1L95.4,469.2c-1.3,3.6,1.7,7.3,5.5,6.9l55.2-5.8c1.5-0.2,3.1,0.4,4.2,1.5l39.7,38.8
			c2.7,2.7,7.3,1.6,8.6-2L248,394.7l-11.7-11.3L155,355.1z"/>
		<path class="st1" d="M248,394.7l8-23l-113.3-38.5l-8,22.9C166.9,379.1,205.9,393.1,248,394.7z"/>
		<path class="st0" d="M357,355.1l20.3,1l39.4,113.1c1.3,3.6-1.7,7.3-5.5,6.9l-55.2-5.8c-1.5-0.2-3.1,0.4-4.2,1.5l-39.7,38.8
			c-2.7,2.7-7.3,1.6-8.6-2L264,394.7l11.7-11.3L357,355.1z"/>
		<path class="st1" d="M264,394.7l-8-23l113.3-38.5l8,22.9C345.1,379.1,306.1,393.1,264,394.7L264,394.7z"/>
		<path class="st2" d="M256,360.1c-185.9,0-185.8-180.5-185.6-183.6C75.3,78.2,156.5,0,256,0s180.7,78.2,185.6,176.5
			C441.8,179.6,441.9,360.1,256,360.1z"/>
		<path class="st3" d="M256,353c-99.5,0-180.7-78.2-185.6-176.5c-0.2,3.1-0.2,6.2-0.2,9.4c0,102.6,83.2,185.9,185.9,185.9
			s185.9-83.2,185.9-185.9c0-3.1-0.1-6.3-0.2-9.4C436.7,274.8,355.5,353,256,353L256,353z"/>
		<path class="st4" d="M256,320.1c-146.1,0-146.3-143.7-146.1-146.8c4.8-76.5,68.4-137,146.1-137s141.3,60.5,146.1,137
			C402.3,176.4,402.1,320.1,256,320.1z"/>
		<path class="st5" d="M256,313.5c-77.7,0-141.3-60.6-146.1-137c-0.2,3.1-0.3,6.2-0.3,9.4c0,80.9,65.6,146.4,146.4,146.4
			s146.4-65.6,146.4-146.4c0-3.1-0.1-6.3-0.3-9.4C397.3,253,333.7,313.5,256,313.5L256,313.5z"/>
	</g>
</g>
</svg>
