<svg xmlns="http://www.w3.org/2000/svg" width="37.979" height="46.303" viewBox="0 0 37.979 46.303"><defs><style>.a{fill:#fff;}</style></defs><path class="a" d="M58.614,153.593c-6.891-.04-12.592-14.107-12.592-21.271,0-11.7,8.779-14.265,12.162-14.265a14,14,0,0,1,4.589,1.129,10.257,10.257,0,0,0,2.62.751,8.154,8.154,0,0,0,1.88-.609,15.066,15.066,0,0,1,5.666-1.37h.013c1.66,0,6.693.364,9.718,4.908l.709,1.065-1.02.77c-1.457,1.1-4.116,3.105-4.116,7.078a7.989,7.989,0,0,0,4.458,7.385c.639.384,1.3.78,1.3,1.647,0,.566-4.515,12.712-11.071,12.712a8.9,8.9,0,0,1-3.738-.907,7.581,7.581,0,0,0-3.328-.8,8.56,8.56,0,0,0-2.635.713,12.906,12.906,0,0,1-4.57,1.066Z" transform="translate(-46.022 -107.29)"/><path class="a" d="M263.853,0c.171,6.156-4.232,10.428-8.63,10.16C254.5,5.247,259.621,0,263.853,0Z" transform="translate(-236.241)"/></svg>