<svg xmlns="http://www.w3.org/2000/svg" width="15.677" height="15.673" viewBox="0 0 15.677 15.673">
  <path id="Icon_awesome-instagram" data-name="Icon awesome-instagram" d="M7.835,6.056a4.019,4.019,0,1,0,4.019,4.019A4.012,4.012,0,0,0,7.835,6.056Zm0,6.631a2.613,2.613,0,1,1,2.613-2.613A2.617,2.617,0,0,1,7.835,12.687Zm5.12-6.8a.937.937,0,1,1-.937-.937A.935.935,0,0,1,12.955,5.892Zm2.662.951a4.638,4.638,0,0,0-1.266-3.284,4.669,4.669,0,0,0-3.284-1.266c-1.294-.073-5.173-.073-6.467,0A4.662,4.662,0,0,0,1.316,3.555,4.654,4.654,0,0,0,.05,6.839c-.073,1.294-.073,5.173,0,6.467A4.638,4.638,0,0,0,1.316,16.59,4.675,4.675,0,0,0,4.6,17.856c1.294.073,5.173.073,6.467,0a4.638,4.638,0,0,0,3.284-1.266,4.669,4.669,0,0,0,1.266-3.284c.073-1.294.073-5.169,0-6.463Zm-1.672,7.852a2.645,2.645,0,0,1-1.49,1.49,17.274,17.274,0,0,1-4.62.315,17.408,17.408,0,0,1-4.62-.315,2.645,2.645,0,0,1-1.49-1.49,17.274,17.274,0,0,1-.315-4.62,17.408,17.408,0,0,1,.315-4.62,2.645,2.645,0,0,1,1.49-1.49,17.274,17.274,0,0,1,4.62-.315,17.408,17.408,0,0,1,4.62.315,2.645,2.645,0,0,1,1.49,1.49,17.274,17.274,0,0,1,.315,4.62A17.264,17.264,0,0,1,13.945,14.695Z" transform="translate(0.005 -2.238)" fill="#fff"/>
</svg>
