<svg xmlns="http://www.w3.org/2000/svg" width="72.023" height="72.474" viewBox="0 0 72.023 72.474">
  <g id="Groupe_6" data-name="Groupe 6" transform="translate(-249.336 -1527.879)">
    <g id="partnership" transform="translate(249.336 1527.879)">
      <path id="Tracé_54" data-name="Tracé 54" d="M325.146,300.867l-7.089-7.09-14.666,14.666a17.782,17.782,0,0,1-9.473,4.964l9.344,9.344a2.191,2.191,0,0,0,3.1,0l18.784-18.783a2.192,2.192,0,0,0,0-3.1Zm0,0" transform="translate(-253.765 -250.919)" fill="#707070"/>
      <path id="Tracé_55" data-name="Tracé 55" d="M61.481,63.824a6.549,6.549,0,0,0,0-8.963l-.008-.009a6.052,6.052,0,0,0-2.012-1.4,6.558,6.558,0,0,0-1.356-6.818l-.017-.018a6.057,6.057,0,0,0-2-1.383,6.557,6.557,0,0,0-1.354-6.816l0,0a6.045,6.045,0,0,0-2.014-1.4A6.559,6.559,0,0,0,51.363,30.2h0l0,0a5.9,5.9,0,0,0-8.587,0l-3.98,4.156,2.035,2.125a9.381,9.381,0,0,1,0,12.845,8.561,8.561,0,0,1-4.072,2.4,9.138,9.138,0,0,1-2.292,4.245,8.556,8.556,0,0,1-4.067,2.4,9.132,9.132,0,0,1-2.3,4.246,8.556,8.556,0,0,1-4.067,2.4,9.137,9.137,0,0,1-2.3,4.247,8.439,8.439,0,0,1-12.3,0L7.4,67.136.615,74.226a2.261,2.261,0,0,0,0,3.1L18.6,96.109a2.037,2.037,0,0,0,2.969,0L34.447,82.664h3.628a12.6,12.6,0,0,0,9.16-3.962Zm0,0" transform="translate(0 -24.277)" fill="#707070"/>
      <path id="Tracé_56" data-name="Tracé 56" d="M60.178,69.029a4.7,4.7,0,0,0,6.645-6.645,4.7,4.7,0,0,0,6.645-6.645,4.7,4.7,0,0,0,6.645-6.645,4.7,4.7,0,0,0,6.645-6.645l-9.369-9.369a4.7,4.7,0,0,0-6.645,6.645L71.918,40.9a4.7,4.7,0,0,0-6.645,6.645l2.348,2.348a4.7,4.7,0,0,0-6.645,6.645l2.348,2.348a4.7,4.7,0,0,0-6.645,6.645Zm0,0" transform="translate(-47.221 -27.144)" fill="#707070"/>
      <path id="Tracé_57" data-name="Tracé 57" d="M236.535,3.324a10.858,10.858,0,0,1,1.024-.9l-1.282-1.282a2.193,2.193,0,0,0-2.53-.411l-5.411,2.705,4.043,4.043Zm0,0" transform="translate(-196.392 -0.501)" fill="#707070"/>
    </g>
  </g>
</svg>
