<svg xmlns="http://www.w3.org/2000/svg" viewBox="0 0 74.45 75.71"><defs><style>.cls-1{fill:#6a6664;}.cls-2{fill:#bfe3e6;}</style></defs><g id="Calque_2" data-name="Calque 2"><g id="Layer_1" data-name="Layer 1"><path class="cls-1" d="M17.37,20c.44,0,1,.15,1.29-.08a.58.58,0,0,0,.14-.17c.1.12.22.24.33.25.44,0,1,.15,1.29-.08a1.88,1.88,0,0,0,.44-1.28c0-1.22-.59-2.51.46-3.56a2.94,2.94,0,0,1,.84-.58,1.82,1.82,0,0,1,1.05,1.83,2.72,2.72,0,0,0,.2,1.1,1.11,1.11,0,0,0,1.42.7,1.56,1.56,0,0,0,.56-.34,1.06,1.06,0,0,0,1.2.34,1.2,1.2,0,0,0,.91-1.4c-.26-1.78-.55-3.55-.79-5.33-.12-.92-.18-1.85-.23-2.77a2.33,2.33,0,0,1,1.78-2.37A2.47,2.47,0,0,1,30,8.5c0,.43.08.86.14,1.29.3,2,.62,4,.9,6,.37,2.58.72,5.17,1.09,7.75,0,.16.1.4.22.45a2.89,2.89,0,0,0,1.37.42.87.87,0,0,0,.56-.34,2.36,2.36,0,0,0,1.2.34c.65-.11.88-.71.79-1.36-.27-1.9-.56-3.79-.83-5.68-.41-2.9-.8-5.81-1.23-8.7-.25-1.67-.63-3.31.16-5a2.36,2.36,0,0,1,1.15-1.16,3,3,0,0,1,1.81,2.71c.38,2.78.79,5.56,1.19,8.35q.45,3.13.93,6.28c.23,1.55.42,3.11.76,4.63a1.79,1.79,0,0,0,1,1.08c.27.1.8-.2,1.06-.5a1.9,1.9,0,0,0,.7.5c.29.1.91-.25,1.13-.57a1.93,1.93,0,0,0,.15-1.25c-.34-2.47-.72-4.94-1.09-7.4-.44-2.87-.91-5.73-1.3-8.61A2.61,2.61,0,0,1,44,4.64c1,.29,1.52,1.13,1.71,2.54.52,3.76,1.08,7.52,1.65,11.27.47,3.07,1,6.13,1.46,9.2.1.65.35,1.09,1,1.2a1.05,1.05,0,0,0,1.08-.37,1.06,1.06,0,0,0,.68.37A1.16,1.16,0,0,0,53,28a14,14,0,0,1,.81-2,6.85,6.85,0,0,1,2.59-2.87,1.47,1.47,0,0,1,.12.47c.45,3.33.85,6.67,1.28,10,.21,1.64.4,3.28.68,4.91a1.21,1.21,0,0,0,1.4,1.11,1.16,1.16,0,0,0,.69-.41,1.13,1.13,0,0,0,1.07.41,1.3,1.3,0,0,0,1-1.57c-.18-1.38-.37-2.76-.55-4.14-.51-3.89-1-7.77-1.55-11.65A2.13,2.13,0,0,0,59.7,21a3.7,3.7,0,0,0-3.1-.62,4.63,4.63,0,0,0-3.73.9c-.26.2-.51.43-.76.65-.15-.88-.31-1.74-.44-2.6q-1-6.45-1.93-12.9a4.79,4.79,0,0,0-1.55-3.19,5.51,5.51,0,0,0-4.25-1,6.28,6.28,0,0,0-3.2.38A4.76,4.76,0,0,0,35.61.08a5.64,5.64,0,0,0-2.08,0c-2,.39-3,1.83-3.5,3.63a5.81,5.81,0,0,0-1.86,0A5.25,5.25,0,0,0,25.4,4a5.12,5.12,0,0,0-3.14,5.75c.11.68.2,1.36.32,2.13h-.75a5,5,0,0,0-3.51,1A5.6,5.6,0,0,0,17,19.55C17,19.71,17.22,19.93,17.37,20Z"/><path class="cls-2" d="M58.7,14a1.06,1.06,0,0,0,1-.36,1.12,1.12,0,0,0,.77.36,1.07,1.07,0,0,0,1.24-.82,5.88,5.88,0,0,0,.1-.94h-.24c0-2,0-3.94,0-5.91a7.11,7.11,0,0,0-.1-1.39,1.19,1.19,0,0,0-1.3-1,1.34,1.34,0,0,0-.8.38,1,1,0,0,0-1-.38,1.22,1.22,0,0,0-1.14,1.31c.12,2.61.28,5.22.42,7.82A1,1,0,0,0,58.7,14Z"/><path class="cls-2" d="M10.61,11A1.24,1.24,0,0,0,12,12.09a1.1,1.1,0,0,0,.69-.46,1.08,1.08,0,0,0,1.07.46,1.32,1.32,0,0,0,1-1.61c-.08-.39-.15-.79-.24-1.19-.45-2.06-.89-4.13-1.36-6.18-.13-.58-.46-1-1-1a1.39,1.39,0,0,0-1,.34.78.78,0,0,0-.73-.34c-.88,0-1.29.36-1.31,1.1a5.46,5.46,0,0,0,.12,1.21C9.62,6.64,10.12,8.81,10.61,11Z"/><path class="cls-2" d="M60.57,15.75c.16.36.63.58.92.82a3,3,0,0,0,.89-.32l.2-.18c.21.19.48.34.67.5a3,3,0,0,0,.89-.32c1.55-1.36,3.11-2.73,4.61-4.15a1.12,1.12,0,0,0,0-1.58c-.37-.47-.94-.73-1.44-.3l-.33.29c-.38-.46-.93-.72-1.43-.29q-2.49,2.12-4.86,4.38A1.25,1.25,0,0,0,60.57,15.75Z"/><path class="cls-2" d="M4.31,12.6c1.58.84,3.18,1.63,4.75,2.47a1.16,1.16,0,0,0,1.38-.2l.38.2c.8.42,1.79-.11,1.83-1.31a4.05,4.05,0,0,0-.91-1C10.08,11.87,8.4,11,6.68,10.21a1.49,1.49,0,0,0-1.33.21l-.43-.21a1.49,1.49,0,0,0-1.36.23,1.63,1.63,0,0,0-.2,1.38C3.46,12.15,4,12.4,4.31,12.6Z"/><path class="cls-2" d="M10.44,18.75c.79-.38,1-1,.74-1.6a1.23,1.23,0,0,0-1.8-.58l-.29.12a1.27,1.27,0,0,0-1.47-.12L7,16.84C4.9,17.72,2.8,18.59.72,19.51a1.05,1.05,0,0,0-.65,1.35A4.46,4.46,0,0,0,1,21.94c.43-.15.63-.2.81-.28l.48-.2c.16.17.34.32.47.48.43-.15.63-.2.81-.28L8,19.81C8.81,19.47,9.64,19.13,10.44,18.75Z"/><path class="cls-2" d="M73.49,18.41q-3.78-.59-7.56-1.12a1.64,1.64,0,0,0-1,.12l-.81-.12c-.88-.12-1.36.21-1.48.93a1.2,1.2,0,0,0,1.08,1.4c2.51.41,5,.77,7.62,1.17a1.53,1.53,0,0,0,.69-.16l1.07.16a1.17,1.17,0,0,0,1.29-1.05A1.09,1.09,0,0,0,73.49,18.41Z"/><path class="cls-1" d="M60.25,41.94c-4.31-4.67-8.78-9.17-13.19-13.74a2.14,2.14,0,0,0-2.68-.73,2.26,2.26,0,0,0-2.16.16,5.09,5.09,0,0,0-2.8,4.1c0,.18-.05.38-.07.57-3.57-3.59-7.18-7.14-10.62-10.85A4.71,4.71,0,0,0,24.38,20a5,5,0,0,0-4.88,1.84,16.51,16.51,0,0,0-1,1.59,5.21,5.21,0,0,0-2.35-.12,4.86,4.86,0,0,0-3.93,1c-1.55,1.28-2.18,3.42-1.12,6-.37.15-.74.31-1.12.45A4.94,4.94,0,0,0,7.51,38.4c.64.91,1.42,1.71,2.17,2.59-.09.1-.11.16-.16.19-3.24,1.56-3.69,5.61-1,8.23C15.31,56,22,62.79,28.64,69.51a20.26,20.26,0,0,0,13.81,6.18c.6,0,1.2,0,1.79,0a35.74,35.74,0,0,0,3.58-.17,19.76,19.76,0,0,0,3.56-.82,17.08,17.08,0,0,0,2.59-1A17.39,17.39,0,0,0,56.24,72a21.59,21.59,0,0,0,4.92-4.71C62.08,66,63,64.55,63.78,63.1c0-.11.12-.22.17-.33a20.62,20.62,0,0,0,1.33-8.34A19.09,19.09,0,0,0,60.25,41.94ZM50.73,71.65a16.56,16.56,0,0,1-6.45,1.66A18.89,18.89,0,0,1,41.54,73a20,20,0,0,1-10.32-6C24.86,60.48,18.43,54.11,12,47.71c-1.42-1.41-1.57-2.63-.41-3.82a2.86,2.86,0,0,1,.53-.43,2.46,2.46,0,0,1,.49.4q5.59,5.7,11.17,11.42c.15.15.3.28.45.41a1.08,1.08,0,0,0,1.67-.08l.09.08a1.07,1.07,0,0,0,1.67-.09,1,1,0,0,0,0-1.6q-2.53-2.62-5.08-5.22c-3.6-3.67-7.21-7.31-10.78-11-1.48-1.52-1.43-3.17,0-4.28a3.53,3.53,0,0,1,.79-.45,3.22,3.22,0,0,1,1,.71L27.53,48a11.64,11.64,0,0,0,.88.84,1.12,1.12,0,0,0,1.69-.06l.07.06a1.12,1.12,0,0,0,1.7-.07,1,1,0,0,0,0-1.6l-5-5.17C23.2,38.21,19.56,34.49,16,30.72a5.9,5.9,0,0,1-1.08-1.93,2.12,2.12,0,0,1,.65-2.58,2.57,2.57,0,0,1,.73-.39,1.76,1.76,0,0,1,.42.24c1.12.93,2.16,2,3.2,3q6.63,6.61,13.23,13.26c.76.76,1.5.81,2,.2.81.67,1.57.53,2-.38.31-.67-.06-1.1-.48-1.53q-4.11-4.08-8.21-8.17C26.69,30.74,25,29,23.29,27.3a2.52,2.52,0,0,1-.85-2.74,3.25,3.25,0,0,1,1.81-2,1.88,1.88,0,0,1,.66.4c4.18,4.11,8.31,8.29,12.46,12.44q3.48,3.48,7,6.93a1.24,1.24,0,0,0,1.86.13s0,0,0,0a1.21,1.21,0,0,0,1.74,0,1.3,1.3,0,0,0-.18-1.93c-1-1-2-2.09-3.11-3.08a3.1,3.1,0,0,1-1-1.76,8,8,0,0,1,.08-4.21,4.61,4.61,0,0,1,.45-.92q3.35,3.49,6.7,7c1.54,1.59,3,3.23,4.62,4.78a18.42,18.42,0,0,1,5.22,9.3,33.36,33.36,0,0,1,.45,3.64C60.82,62.89,57.42,68.41,50.73,71.65Z"/></g></g></svg>