<svg xmlns="http://www.w3.org/2000/svg" width="109.813" height="107.512" viewBox="0 0 109.813 107.512"><defs><style>.a{fill:#707070;}</style></defs><g transform="translate(-3 -2)"><path class="a" d="M14.167,3H4.861A1.863,1.863,0,0,0,3,4.861V92.339H14.167Z" transform="translate(0 0.861)"/><path class="a" d="M34.584,39.4,39.4,34.584l-4.813-4.813a2.631,2.631,0,0,0-3.722,0l-1.091,1.089a2.633,2.633,0,0,0,0,3.722Z" transform="translate(22.392 23.253)"/><path class="a" d="M55.31,54.029l.02.011a1.823,1.823,0,0,1,.328-.493L56.205,53H3v1.861a1.862,1.862,0,0,0,1.861,1.861h49.1Z" transform="translate(0 43.923)"/><path class="a" d="M64.205,81.172,42.641,59.608a6.356,6.356,0,0,1,0-8.988l1.091-1.089a6.506,6.506,0,0,1,8.986,0L70.559,67.373V3H11V92.339H53.038ZM14.722,38.363V8.584a1.861,1.861,0,0,1,1.861-1.861H64.976a1.861,1.861,0,0,1,1.861,1.861v29.78a1.861,1.861,0,0,1-1.861,1.861H16.584a1.861,1.861,0,0,1-1.861-1.861Z" transform="translate(6.89 0.861)"/><path class="a" d="M15,33.057H59.67V7H15Zm29.78-10.4v6.674H41.057V22.66L37.88,19.483l2.632-2.632,2.407,2.407,2.407-2.407,2.632,2.632ZM21.9,20.574l3.54,3.54L30.007,11.93a1.865,1.865,0,0,1,1.744-1.208h24.2v3.722H33.041L27.91,28.127a1.863,1.863,0,0,1-1.349,1.165,1.751,1.751,0,0,1-.393.043,1.861,1.861,0,0,1-1.316-.545l-5.584-5.584Z" transform="translate(10.335 4.306)"/><path class="a" d="M0,0H19.967V6.807H0Z" transform="translate(83.787 74.592) rotate(-45)"/><path class="a" d="M55.688,59.481l7.586,3.793-3.793-7.586Z" transform="translate(45.377 46.238)"/><path class="a" d="M65.04,30.85,63.95,29.759a2.7,2.7,0,0,0-3.722,0l-4.813,4.813,4.813,4.813,4.813-4.813a2.633,2.633,0,0,0,0-3.722Z" transform="translate(45.141 23.265)"/><path class="a" d="M0,0H6.807V54.186H0Z" transform="translate(59.592 65.286) rotate(-45)"/><path class="a" d="M0,0H19.967V6.807H0Z" transform="translate(59.59 98.781) rotate(-45)"/><path class="a" d="M45.227,57.227V52.414l-4.813,4.813Z" transform="translate(32.222 43.418)"/><path class="a" d="M30.236,63.274l7.586-3.793-3.793-3.793Z" transform="translate(23.457 46.238)"/><path class="a" d="M72.335,9.445H64.89V2H57.445V9.445H50V16.89h7.445v7.445H64.89V16.89h7.445Z" transform="translate(40.478)"/><path class="a" d="M50,20H72.335v7.445H50Z" transform="translate(40.478 15.502)"/></g></svg>