<svg xmlns="http://www.w3.org/2000/svg" width="50.027" height="49.741" viewBox="0 0 50.027 49.741"><defs><style>.a{fill:#cbcacd;}.b{fill:#707070;}.c{fill:#f9f9f9;}.d{fill:#efefef;}</style></defs><path class="a" d="M24.728,0A24.728,24.728,0,1,1,0,24.728,24.728,24.728,0,0,1,24.728,0Z" transform="translate(0.286 0)"/><path class="b" d="M50.027,256H0a25.013,25.013,0,1,0,50.027,0Z" transform="translate(0 -231.272)"/><g transform="translate(16.708 10.56)"><path class="c" d="M172.466,139.336A1.466,1.466,0,0,1,171,137.87v-25.4a1.466,1.466,0,0,1,2.324-1.188l17.588,12.7a1.466,1.466,0,0,1,0,2.376l-17.588,12.7A1.464,1.464,0,0,1,172.466,139.336Z" transform="translate(-171 -111)"/></g><g transform="translate(16.708 24.728)"><path class="d" d="M171,256v12.7a1.466,1.466,0,0,0,2.324,1.188l17.588-12.7a1.466,1.466,0,0,0,.608-1.188Z" transform="translate(-171 -256)"/></g></svg>