<?xml version="1.0" encoding="utf-8"?>
<!-- Generator: Adobe Illustrator 21.0.0, SVG Export Plug-In . SVG Version: 6.00 Build 0)  -->
<svg version="1.1" id="challenge" xmlns="http://www.w3.org/2000/svg" xmlns:xlink="http://www.w3.org/1999/xlink" x="0px" y="0px"
	 viewBox="0 0 127.6 129.1" style="enable-background:new 0 0 127.6 129.1;" xml:space="preserve">
<style type="text/css">
	.st0{fill:#B8B8B8;}
	.st1{fill:#707070;}
</style>
<g>
	<path id="Tracé_24" class="st0" d="M122.3,12.9l-8.1-1.2c-0.7-0.1-1.4-0.6-1.7-1.3l-3.5-7.5l-3.5,7.5c-0.3,0.7-1,1.2-1.7,1.3
		l-8.1,1.2l6,6.1c0.5,0.5,0.7,1.2,0.6,1.9l-1.4,8.5l7.1-3.9c0.7-0.4,1.5-0.4,2.2,0l7.1,3.9l-1.4-8.5c-0.1-0.7,0.1-1.4,0.6-1.9
		L122.3,12.9z"/>
	<path id="Tracé_25" class="st1" d="M7.4,99.1h36.1v27.1H7.4V99.1z"/>
	<path id="Tracé_26" class="st1" d="M48,81.1h36.1v45.1H48V81.1z"/>
	<path id="Tracé_27" class="st1" d="M88.6,63h36.1v63.2H88.6V63z"/>
	<path id="Tracé_28" class="st0" d="M31.9,64l8.4-16.8h30.2c0.8,0,1.5-0.4,1.9-1.1l11.3-18.1c0.7-1.1,0.3-2.4-0.7-3.1
		c-1.1-0.7-2.4-0.3-3.1,0.7l0,0l-10.6,17H39c-0.9,0-1.6,0.5-2,1.2l-8.4,16.8H5.1c-1.2,0-2.3,1-2.3,2.3c0,1.2,1,2.3,2.3,2.3h24.8
		C30.8,65.3,31.6,64.8,31.9,64L31.9,64z"/>
</g>
</svg>
