<svg id="Calque_1" data-name="Calque 1" xmlns="http://www.w3.org/2000/svg" viewBox="0 0 174.26 98.56"><defs><style>.cls-1{isolation:isolate;}.cls-2{fill:#636363;}</style></defs><title>MON AMIALBERT2</title><g id="MON_AMI_ALBERT" data-name="MON AMI ALBERT" class="cls-1"><g class="cls-1"><path class="cls-2" d="M29.35,18.67q-3.3,4.83-5.51,7.79T20.21,31A8.29,8.29,0,0,1,18,33,1.57,1.57,0,0,1,16.5,33a3.47,3.47,0,0,1-1.17-1.17,13.56,13.56,0,0,0-1.42-1.75,11,11,0,0,1-1-1.29l-1.6-2.31-2-2.79L7.41,21q-.91-1.27-1.62-2.18a9,9,0,0,0-1-1.17l-.51,31a.88.88,0,0,1-.43.76,1.4,1.4,0,0,1-.84.15,2.28,2.28,0,0,1-.84-.25,1,1,0,0,1-.48-.46q-.15-3.66-.15-8.07t.08-9q.08-4.54.13-9t-.05-8.12q.25-1.73,1-2.06A2,2,0,0,1,4.52,13a11.74,11.74,0,0,1,2.36,2.08q1.29,1.42,2.67,3.2t2.67,3.68q1.29,1.9,2.34,3.5l1.78,2.72a7.5,7.5,0,0,0,.94,1.27L28.84,13.54q1.22-1.32,2-1a2.14,2.14,0,0,1,1.14,1.37,10.11,10.11,0,0,1,.53,2.69,25.29,25.29,0,0,1,.08,2.92q0,.81.1,3t.05,5.1v6.12q0,3.23,0,6.12t0,5.1q0,2.21.05,3a2,2,0,0,1-.28,1.6,1.79,1.79,0,0,1-1,.66,1.67,1.67,0,0,1-1.14-.15,1,1,0,0,1-.58-.84Z" transform="translate(-1.52 -12.12)"/><path class="cls-2" d="M39.56,48.32a10.35,10.35,0,0,1-3.28-4.77A24.26,24.26,0,0,1,35,36.85a34.35,34.35,0,0,1,.38-7.52,40.1,40.1,0,0,1,1.8-7.21,24.16,24.16,0,0,1,2.95-5.84A9.48,9.48,0,0,1,44,12.88a5.37,5.37,0,0,1,4.49.15q2.39,1.07,4.88,4.77a24.75,24.75,0,0,1,1.47,6.37,40,40,0,0,1,.1,7.54,35.87,35.87,0,0,1-1.37,7.44,19.28,19.28,0,0,1-2.95,6.09A9.74,9.74,0,0,1,46,48.73,9.27,9.27,0,0,1,39.56,48.32Zm2-29a31.46,31.46,0,0,0-1.19,3.58q-.58,2.11-1,4.49t-.66,4.9a35.48,35.48,0,0,0-.13,4.8,23.7,23.7,0,0,0,.53,4.19,7.9,7.9,0,0,0,1.35,3.1,4,4,0,0,0,2.36,1.52,5.76,5.76,0,0,0,3.53-.58,15.23,15.23,0,0,0,3.25-4.67A24,24,0,0,0,51.37,35a26.74,26.74,0,0,0,.41-5.92,30.47,30.47,0,0,0-.71-5.51,18.25,18.25,0,0,0-1.57-4.42,6.59,6.59,0,0,0-2.23-2.64,2.9,2.9,0,0,0-2.72-.18A6.9,6.9,0,0,0,41.59,19.28Z" transform="translate(-1.52 -12.12)"/><path class="cls-2" d="M57,15.06a5.51,5.51,0,0,1,.43-1.62,1.3,1.3,0,0,1,.74-.71,1.78,1.78,0,0,1,1.07,0,7.42,7.42,0,0,1,1.37.58q1,1.68,2.34,4.27t2.89,5.64l3.12,6.25q1.6,3.2,3,6.09l2.56,5.23q1.14,2.34,1.8,3.55a16.4,16.4,0,0,0,0-1.8q0-1.45-.05-3.55t-.1-4.72q-.08-2.61-.13-5.31T76,23.7q-.05-2.59-.1-4.7t-.08-3.53q0-1.42,0-1.78,0-1.07.58-1.37a1.6,1.6,0,0,1,1.19-.15,2.93,2.93,0,0,1,1.19.58,1.77,1.77,0,0,1,.63.79q0,.56,0,2.26t0,4.16V37.61q0,3,0,5.46t0,4.16q0,1.7-.05,2.26a5.47,5.47,0,0,1-1.35.46,2,2,0,0,1-1.14-.13A3.43,3.43,0,0,1,75.59,49a12.36,12.36,0,0,1-1.29-1.68A42.53,42.53,0,0,1,72,43.5q-1.19-2.23-2.44-4.8t-2.51-5.31q-1.27-2.74-2.51-5.33t-2.44-4.85Q60.94,21,59.87,19.28l.36,30.06a.8.8,0,0,1-.46.53,1.84,1.84,0,0,1-.91.23,1.71,1.71,0,0,1-1-.3,1.38,1.38,0,0,1-.56-1Z" transform="translate(-1.52 -12.12)"/><path class="cls-2" d="M101.31,34.56a2.62,2.62,0,0,0-.05-1.52,11.85,11.85,0,0,1-.38-1.55,1.85,1.85,0,0,1,.2-1.29q.33-.56,1.7-.76.61-2.33.94-4.11t.61-3.45q.28-1.68.61-3.48t.94-4.19a2.69,2.69,0,0,1,1-1.57,2.53,2.53,0,0,1,1.47-.46,3.64,3.64,0,0,1,1.6.38,8.48,8.48,0,0,1,1.4.84q.35.81.81,1.83t1.09,2.59q.63,1.57,1.5,4t2,6q1.12,3.58,2.56,8.63t3.28,12q-1,1.37-1.73,1.12A2.67,2.67,0,0,1,119.44,48a15.89,15.89,0,0,1-1.09-3.07q-.48-1.85-.89-3.76t-.76-3.5a14.38,14.38,0,0,0-.66-2.31H104.25a35.72,35.72,0,0,0-1,4.62q-.33,2.29-.58,4.21t-.53,3.43a7,7,0,0,1-.74,2.26,1.2,1.2,0,0,1-1.24.66,4.47,4.47,0,0,1-2.11-1.37Zm3.91-2.74q1,0,2.18-.05h2.49l2.49,0q1.22,0,2.18-.13l-5.43-16Z" transform="translate(-1.52 -12.12)"/><path class="cls-2" d="M152.29,18.67q-3.3,4.83-5.51,7.79T143.15,31a8.29,8.29,0,0,1-2.26,2,1.57,1.57,0,0,1-1.45.05,3.47,3.47,0,0,1-1.17-1.17,13.56,13.56,0,0,0-1.42-1.75,11,11,0,0,1-1-1.29l-1.6-2.31-2-2.79-2-2.74q-.91-1.27-1.62-2.18a9,9,0,0,0-1-1.17l-.51,31a.88.88,0,0,1-.43.76,1.4,1.4,0,0,1-.84.15,2.28,2.28,0,0,1-.84-.25,1,1,0,0,1-.48-.46q-.15-3.66-.15-8.07t.08-9q.08-4.54.13-9t-.05-8.12q.25-1.73,1-2.06a2,2,0,0,1,1.83.33,11.74,11.74,0,0,1,2.36,2.08q1.29,1.42,2.67,3.2t2.67,3.68q1.29,1.9,2.34,3.5l1.78,2.72a7.5,7.5,0,0,0,.94,1.27l11.58-15.89q1.22-1.32,2-1a2.14,2.14,0,0,1,1.14,1.37,10.11,10.11,0,0,1,.53,2.69,25.29,25.29,0,0,1,.08,2.92q0,.81.1,3t.05,5.1v6.12q0,3.23,0,6.12t0,5.1q0,2.21.05,3a2,2,0,0,1-.28,1.6,1.79,1.79,0,0,1-1,.66,1.67,1.67,0,0,1-1.14-.15,1,1,0,0,1-.58-.84Z" transform="translate(-1.52 -12.12)"/><path class="cls-2" d="M158.34,48.53q0-3.35.05-7.59t.15-8.81q.1-4.57.23-9.17T159,14.3a2.32,2.32,0,0,1,.58-1.24,1.67,1.67,0,0,1,.91-.51,1.34,1.34,0,0,1,.91.18,1.13,1.13,0,0,1,.53.81q.15,3.66,0,8.2T161.66,31q-.18,4.72-.33,9.27t-.05,8.25a2.13,2.13,0,0,1-.51,1.19A1,1,0,0,1,160,50a1.65,1.65,0,0,1-.89-.46A3.33,3.33,0,0,1,158.34,48.53Z" transform="translate(-1.52 -12.12)"/></g><g class="cls-1"><path class="cls-2" d="M5.78,89.81a3.43,3.43,0,0,0-.07-2,15.52,15.52,0,0,1-.5-2,2.42,2.42,0,0,1,.27-1.69q.43-.73,2.22-1,.8-3.05,1.23-5.38t.8-4.52q.36-2.19.8-4.55t1.23-5.48A3.51,3.51,0,0,1,13,61.12a3.3,3.3,0,0,1,1.93-.6A4.76,4.76,0,0,1,17,61a11.08,11.08,0,0,1,1.83,1.1q.46,1.06,1.06,2.39t1.43,3.39q.83,2.06,2,5.18t2.59,7.8q1.46,4.68,3.35,11.29t4.28,15.64q-1.26,1.79-2.26,1.46a3.49,3.49,0,0,1-1.79-1.93,20.81,20.81,0,0,1-1.43-4q-.63-2.42-1.16-4.91t-1-4.58a18.76,18.76,0,0,0-.86-3H9.63a46.8,46.8,0,0,0-1.29,6q-.43,3-.76,5.51t-.7,4.48a9.2,9.2,0,0,1-1,3,1.56,1.56,0,0,1-1.63.86,5.84,5.84,0,0,1-2.76-1.79Zm5.11-3.59q1.26-.07,2.86-.07H17q1.66,0,3.25,0T23.11,86L16,65Z" transform="translate(-1.52 -12.12)"/><path class="cls-2" d="M35.86,107.54a24.19,24.19,0,0,0,.07-2.76q0-2.62-.07-6.71t-.17-9.2q-.1-5.11-.17-10.33t-.1-10q0-4.75,0-8.13l.7-.07a13.12,13.12,0,0,1,1.36-.07,3.88,3.88,0,0,1,1.29.2c.38.13.56.35.56.66l.66,44H43.6q2.16,0,4.52,0t4.65-.2q2.29-.17,4-.43a1.49,1.49,0,0,1,1,.93A4.08,4.08,0,0,1,58,107a3.6,3.6,0,0,1-.3,1.49,1,1,0,0,1-1,.66q-6.51,0-10.53,0t-6.31-.07a11,11,0,0,1-3.12-.43A1.28,1.28,0,0,1,35.86,107.54Z" transform="translate(-1.52 -12.12)"/><path class="cls-2" d="M60.76,63.52a13.17,13.17,0,0,1,12.88-1.26,13.15,13.15,0,0,1,4.75,3.62,10.77,10.77,0,0,1,2.42,5.21,9.73,9.73,0,0,1-.93,5.81,13.7,13.7,0,0,1-5.18,5.41,11.55,11.55,0,0,1,6.08,2.59,10.77,10.77,0,0,1,3.12,4.71,13.7,13.7,0,0,1,.56,5.81,18.78,18.78,0,0,1-1.66,5.94,19,19,0,0,1-3.52,5.15,13.49,13.49,0,0,1-5,3.35,11.83,11.83,0,0,1-6.08.56,15.27,15.27,0,0,1-6.81-3.15Zm5,19.39a20.57,20.57,0,0,0,6.64-3.82,11.17,11.17,0,0,0,3.09-4.32,6.62,6.62,0,0,0,.2-4.12,6.26,6.26,0,0,0-2.06-3.19A7,7,0,0,0,70,66a8.21,8.21,0,0,0-4.62.93ZM65.88,104a7.34,7.34,0,0,0,4,1.89,7.16,7.16,0,0,0,3.85-.6,9,9,0,0,0,3.22-2.52A12,12,0,0,0,79,98.91a12.57,12.57,0,0,0,.6-4.68,11.66,11.66,0,0,0-1.46-4.95,6.45,6.45,0,0,0-3.45-2.76,7.75,7.75,0,0,0-4.12-.27,6.66,6.66,0,0,0-3.42,1.89,4.79,4.79,0,0,0-1.36,3.65v9.86Q65.81,103.43,65.88,104Z" transform="translate(-1.52 -12.12)"/><path class="cls-2" d="M113.29,103.09a1.75,1.75,0,0,1,.1,2.52,8.36,8.36,0,0,1-3.29,2.09,26.89,26.89,0,0,1-5.38,1.43,36.74,36.74,0,0,1-6.18.53,25.53,25.53,0,0,1-5.68-.6,7.26,7.26,0,0,1-3.88-2q-.53-5.18-1-10.29t-.73-10.23q-.3-5.11-.37-10.33t.13-10.59A3.37,3.37,0,0,1,88.29,63a8.66,8.66,0,0,1,3.22-1.66,20.53,20.53,0,0,1,4.55-.76,49.91,49.91,0,0,1,5.15-.07,47.67,47.67,0,0,1,5.08.46,34.15,34.15,0,0,1,4.35.9,1.4,1.4,0,0,1,.5,1.39Q111,64,109,64.71a24.24,24.24,0,0,1-6,.9,94,94,0,0,1-11.42-.3l.33,15.87q1.79.13,3.85.17t4.22,0q2.16-.07,4.25-.3a23.94,23.94,0,0,0,4-.76,4.66,4.66,0,0,1,.93.93,3.46,3.46,0,0,1,.63,1.23,2.24,2.24,0,0,1,0,1.26,1.8,1.8,0,0,1-1,1,28.28,28.28,0,0,1-4.81,1,38,38,0,0,1-4.65.3A36.34,36.34,0,0,1,95,85.79q-2-.23-3.45-.43L92.44,104q.2.86,1.66,1.13a15.1,15.1,0,0,0,3.59.13q2.12-.13,4.65-.53t4.78-.8q2.26-.4,4-.66A10.28,10.28,0,0,1,113.29,103.09Z" transform="translate(-1.52 -12.12)"/><path class="cls-2" d="M141.31,110a12.2,12.2,0,0,1-2.39-3.35q-1.26-2.36-2.72-5.28T133,95.46a31.08,31.08,0,0,0-3.72-5.28A13.2,13.2,0,0,0,125,86.82a6.61,6.61,0,0,0-5-.13l-.4,20.19a3.15,3.15,0,0,1-.6,1.89,2.94,2.94,0,0,1-1.29,1.1,1.07,1.07,0,0,1-1.23-.27,3.15,3.15,0,0,1-.46-2.26q.4-10.16.07-20.45t-.6-19.72a2.71,2.71,0,0,1,1.36-2.29,2.57,2.57,0,0,1,2.49.37,22.49,22.49,0,0,0,2.42-1.39q1.1-.73,2.16-1.36a21.66,21.66,0,0,1,2.26-1.16,14.1,14.1,0,0,1,2.72-.86,8.42,8.42,0,0,1,6,1.36A9.35,9.35,0,0,1,138,66.2a14.38,14.38,0,0,1,.76,5.81,16.89,16.89,0,0,1-1.33,5.71,8.23,8.23,0,0,1-1.36,2.09q-.9,1-1.93,2t-2.06,1.93a18.74,18.74,0,0,0-1.76,1.79q2.26,2.72,4.32,5.58t3.72,5.54q1.66,2.69,2.92,5.11a33,33,0,0,1,1.93,4.35,1.8,1.8,0,0,1,.23,1.2,3.1,3.1,0,0,1-.4,1.1,3.86,3.86,0,0,1-.8.93A3.78,3.78,0,0,1,141.31,110ZM119.73,82.91c0,.09.33.14.86.17s1.14,0,1.83,0,1.36,0,2,0a6.56,6.56,0,0,0,1.46-.17,14.56,14.56,0,0,0,5-2.82,12.32,12.32,0,0,0,3-3.85A11.39,11.39,0,0,0,135,72a8.77,8.77,0,0,0-.53-3.79,6.26,6.26,0,0,0-2-2.72,4.74,4.74,0,0,0-3.25-.93,9.44,9.44,0,0,0-4.32,1.56A22.56,22.56,0,0,0,119.73,71Z" transform="translate(-1.52 -12.12)"/><path class="cls-2" d="M162.56,108.41q.26-.4,0,.17a2.8,2.8,0,0,1-.83,1.06,2.49,2.49,0,0,1-1.43.56q-.83.07-1.83-1.33-.13-1.53-.2-4.18t-.07-6q0-3.35,0-7.14t.07-7.47q0-3.69.1-7.07t.13-6q.06-2.59.07-5.64l-11.22.27a1.3,1.3,0,0,1-1.2-.66,3.09,3.09,0,0,1-.43-1.49,2.78,2.78,0,0,1,.37-1.53,1.49,1.49,0,0,1,1.26-.76l26.83-.27a1.91,1.91,0,0,1,1.46,1.53,5.89,5.89,0,0,1-.13,2.46L163,65.18Z" transform="translate(-1.52 -12.12)"/></g></g></svg>