<svg height="50.65" viewBox="0 0 45.991 50.65" width="45.991" xmlns="http://www.w3.org/2000/svg"><g fill="#32bbff"><path d="m81.044 17.385c-5.884-3.291-15.328-8.576-29.976-16.778a3.532 3.532 0 0 0 -3.106-.407l25.132 25.134z" transform="translate(-45.547 -.011)"/><path d="m25.964 1.93a3.611 3.611 0 0 0 -.534.228 3.534 3.534 0 0 0 -1.881 3.142v43.524a3.534 3.534 0 0 0 1.881 3.142 3.656 3.656 0 0 0 .534.229l25.136-25.133z" transform="translate(-23.549 -1.739)"/><path d="m73.089 255.98-25.133 25.133a3.5 3.5 0 0 0 3.106-.406c14.206-7.955 23.543-13.177 29.5-16.5l.489-.274z" transform="translate(-45.542 -230.657)"/></g><path d="m23.549 255.98v21.762a3.534 3.534 0 0 0 1.881 3.142 3.654 3.654 0 0 0 .534.229l25.136-25.133z" fill="#2c9fd9" transform="translate(-23.549 -230.657)"/><path d="m46.2.6a3.543 3.543 0 0 0 -3.64-.177l25.286 25.277 8.331-8.331c-5.884-3.286-15.328-8.569-29.977-16.769z" fill="#29cc5e" transform="translate(-40.68)"/><path d="m67.846 252.126-25.285 25.285a3.518 3.518 0 0 0 3.64-.177c14.206-7.955 23.543-13.177 29.5-16.5l.489-.274z" fill="#d93f21" transform="translate(-40.68 -227.184)"/><path d="m313.509 181.08a3.525 3.525 0 0 0 -1.815-3.1s-2.255-1.258-9.169-5.125l-8.225 8.225 8.231 8.231c6.837-3.839 9.161-5.133 9.161-5.133a3.525 3.525 0 0 0 1.817-3.098z" fill="#ffd500" transform="translate(-267.518 -155.757)"/><path d="m311.695 259.078a3.525 3.525 0 0 0 1.815-3.1h-19.21l8.231 8.231c6.841-3.837 9.164-5.131 9.164-5.131z" fill="#fa0" transform="translate(-267.518 -230.657)"/></svg>