<svg xmlns="http://www.w3.org/2000/svg" width="57.926" height="69.225" viewBox="0 0 57.926 69.225">
  <g id="Groupe_9" data-name="Groupe 9" transform="translate(-1058 -1541.2)">
    <g id="cup" transform="translate(1058 1541.2)">
      <g id="Groupe_5" data-name="Groupe 5" transform="translate(0 4.654)">
        <path id="Tracé_29" data-name="Tracé 29" d="M363.734,44.822a1.068,1.068,0,0,1,0-2.135A10.69,10.69,0,0,0,374.41,32.01V23.468H364.8a1.068,1.068,0,1,1,0-2.135h10.677a1.068,1.068,0,0,1,1.068,1.068V32.01A12.827,12.827,0,0,1,363.734,44.822Z" transform="translate(-318.62 -21.333)" fill="#707070"/>
        <path id="Tracé_30" data-name="Tracé 30" d="M23.479,44.822A12.827,12.827,0,0,1,10.667,32.01V22.4a1.068,1.068,0,0,1,1.068-1.068H22.411a1.068,1.068,0,0,1,0,2.135H12.8V32.01A10.69,10.69,0,0,0,23.479,42.686a1.068,1.068,0,1,1,0,2.135Z" transform="translate(-10.667 -21.333)" fill="#707070"/>
        <path id="Tracé_31" data-name="Tracé 31" d="M163.549,315.766l-.776-.8c-3.023-3.109-3.854-11.8-3.917-14.889a1.442,1.442,0,0,0-1.442-1.413h-5.769a1.442,1.442,0,0,0-1.442,1.41c-.061,3.086-.891,11.774-3.917,14.889l-.776.8c-3.96,4.076-6.845,7.021-6.845,10.306a1.442,1.442,0,0,0,1.442,1.442h28.844a1.442,1.442,0,0,0,1.442-1.442C170.393,322.783,167.509,319.838,163.549,315.766Z" transform="translate(-124.685 -262.94)" fill="#707070"/>
      </g>
      <path id="Tracé_32" data-name="Tracé 32" d="M153.388,0H118.775a1.442,1.442,0,0,0-1.442,1.442V24.517a18.749,18.749,0,0,0,37.5,0V1.442A1.442,1.442,0,0,0,153.388,0Z" transform="translate(-106.238)" fill="#b8b8b8"/>
    </g>
  </g>
</svg>
