<svg xmlns="http://www.w3.org/2000/svg" width="18.28" height="14.847" viewBox="0 0 18.28 14.847">
  <path id="Icon_awesome-twitter" data-name="Icon awesome-twitter" d="M16.4,7.081c.012.162.012.325.012.487A10.586,10.586,0,0,1,5.753,18.227,10.587,10.587,0,0,1,0,16.545a7.75,7.75,0,0,0,.9.046,7.5,7.5,0,0,0,4.651-1.6,3.753,3.753,0,0,1-3.5-2.6,4.725,4.725,0,0,0,.708.058,3.962,3.962,0,0,0,.986-.128,3.747,3.747,0,0,1-3-3.677V8.6a3.773,3.773,0,0,0,1.693.476,3.752,3.752,0,0,1-1.16-5.011A10.649,10.649,0,0,0,9,7.985a4.229,4.229,0,0,1-.093-.858,3.75,3.75,0,0,1,6.484-2.563,7.376,7.376,0,0,0,2.378-.9,3.736,3.736,0,0,1-1.647,2.065,7.511,7.511,0,0,0,2.157-.58A8.053,8.053,0,0,1,16.4,7.081Z" transform="translate(0 -3.381)" fill="#fff"/>
</svg>
